<?xml version="1.0" encoding="UTF-8"?>
<svg version="1.1" xmlns="http://www.w3.org/2000/svg" width="1080" height="1080">
<path d="M0 0 C28.59806591 -0.0700351 57.196119 -0.12296122 85.79425335 -0.15543652 C99.07241874 -0.17091515 112.35053089 -0.19202374 125.62866211 -0.22631836 C137.19987756 -0.25619017 148.77105445 -0.27556775 160.34230739 -0.28226548 C166.47100236 -0.28618149 172.59958702 -0.29540543 178.72824669 -0.31719017 C184.49425365 -0.33752019 190.26010464 -0.34384082 196.02614403 -0.33932304 C198.1445653 -0.3401498 200.26299167 -0.34613608 202.38138199 -0.35761642 C205.27000634 -0.37250585 208.15803906 -0.36896644 211.04667664 -0.36076355 C211.88812105 -0.36950207 212.72956547 -0.3782406 213.5965082 -0.38724393 C218.22093535 -0.35166194 221.25290158 -0.00882649 225 3 C226.97241211 5.87426758 226.97241211 5.87426758 228.83984375 9.33203125 C229.17966782 9.95189407 229.51949188 10.5717569 229.86961365 11.21040344 C230.57646008 12.50183236 231.27798953 13.79618498 231.9743042 15.09332275 C233.53760657 17.99936279 235.14973163 20.87808925 236.75390625 23.76171875 C237.69726213 25.47548193 238.6406004 27.18925533 239.58251953 28.90380859 C241.31422716 32.05574082 243.04984826 35.20551771 244.78515625 38.35546875 C245.31485519 39.31723526 245.31485519 39.31723526 245.85525513 40.2984314 C249.38698662 46.70814036 252.94199483 53.1048433 256.5 59.5 C261.34710568 68.21432103 266.17790153 76.93737458 270.99139404 85.67028809 C273.66009743 90.51158249 276.33096937 95.35168118 279.0020752 100.19165039 C279.66876398 101.39976386 280.33534883 102.60793468 281.00183105 103.81616211 C283.28934091 107.96274442 285.58113084 112.10693195 287.875 116.25 C288.49117188 117.36584473 289.10734375 118.48168945 289.7421875 119.63134766 C292.48119191 124.56849165 295.2518 129.47056021 298.1953125 134.2890625 C298.67371582 135.07506836 299.15211914 135.86107422 299.64501953 136.67089844 C300.51513973 138.08629396 301.39793891 139.49401608 302.29638672 140.89160156 C303.97566077 143.61494288 305.03011463 145.4140553 304.86328125 148.66015625 C304.00752061 150.97961609 303.13228708 153.27769618 302.1875 155.5625 C300.16342444 160.99204576 298.93946311 166.45674651 297.8125 172.125 C297.56246216 173.3771228 297.56246216 173.3771228 297.30737305 174.65454102 C291.43901354 205.25018425 294.92235019 236.82660308 312.16796875 263.33203125 C320.5947158 275.09466784 329.63443991 280.94501775 343.9375 283.375 C375.12530829 286.85424293 408.73558912 272.62219363 433.265625 254.1875 C437.11523396 251.10781284 440.87851602 247.92885895 444.58666992 244.68017578 C447.27920611 242.34157815 449.77941559 240.51125373 453 239 C449.90374886 244.81328444 446.56569412 250.24358581 442.6875 255.5625 C437.4967473 262.79832121 432.49749781 270.15008683 427.5625 277.5625 C426.88856201 278.57320557 426.21462402 279.58391113 425.52026367 280.62524414 C417.79225182 290.55554674 417.79225182 290.55554674 414 302 C415.83267731 306.78314516 418.00885003 310.79687627 420.921875 315.03515625 C421.29843231 315.58672394 421.67498962 316.13829163 422.06295776 316.70657349 C423.28636271 318.49580127 424.51810853 320.27910734 425.75 322.0625 C426.61175332 323.31966553 427.4729114 324.57723928 428.33349609 325.83520508 C430.06858131 328.36977364 431.80676295 330.90216896 433.54785156 333.43261719 C436.92328516 338.33974914 440.27319072 343.2642166 443.625 348.1875 C444.83838144 349.96625514 446.05192419 351.74490026 447.265625 353.5234375 C453.47173528 362.6215556 459.6602349 371.73166326 465.8515625 380.83984375 C467.96304875 383.94564807 470.07515777 387.05102781 472.1875 390.15625 C481.99964344 404.58101788 491.79888912 419.01449323 501.59277344 433.45166016 C505.16599084 438.718854 508.74000702 443.98550581 512.31396484 449.25219727 C513.50230654 451.00339904 514.69061231 452.75462519 515.87890625 454.50585938 C519.42269109 459.7284466 522.96659818 464.95095062 526.51116943 470.17300415 C535.62495846 483.59995512 544.73258759 497.03104963 553.8324585 510.46743774 C559.66192666 519.07478421 565.49495518 527.6796965 571.33328247 536.28103638 C573.67759544 539.73499041 576.02130931 543.18935104 578.36509705 546.6436615 C580.43573409 549.69525903 582.50682466 552.74654745 584.57861328 555.79736328 C590.29396974 564.21418131 595.99966473 572.63745104 601.69439697 581.0682373 C603.01565369 583.02316111 604.33850995 584.97699498 605.66162109 586.93066406 C607.79669192 590.08450715 609.92541611 593.24254606 612.04953003 596.40377808 C612.84237727 597.58183254 613.63720222 598.75855866 614.43411255 599.93386841 C615.52924848 601.54987838 616.61638756 603.17129903 617.703125 604.79296875 C618.62593262 606.16231567 618.62593262 606.16231567 619.56738281 607.55932617 C620.86804149 609.7751893 621.55929339 611.48936326 622 614 C618.12143314 615.29285562 614.44624781 615.15149133 610.40348816 615.15390015 C609.51494386 615.1582824 608.62639957 615.16266465 607.71092969 615.1671797 C604.72159098 615.18057721 601.73228176 615.18674867 598.74291992 615.19287109 C596.60445522 615.2007712 594.46599186 615.20904009 592.32752991 615.21765137 C585.29518916 615.24387816 578.26284242 615.25917787 571.23046875 615.2734375 C568.81141976 615.27879657 566.39237082 615.28417408 563.97332191 615.28956985 C553.9133757 615.31119793 543.8534311 615.32993604 533.79346752 615.34119225 C519.36543812 615.35744115 504.93767761 615.39064288 490.50974959 615.44759309 C480.37040104 615.48625448 470.23112453 615.50582034 460.09170419 615.51111281 C454.03281258 615.51477094 447.97420772 615.52684186 441.91539574 615.55921555 C436.21655765 615.58922966 430.51818083 615.5956316 424.81928062 615.58383179 C422.72706892 615.58361051 420.63483622 615.59196023 418.54269791 615.60948563 C415.68706115 615.63210579 412.83310721 615.62391542 409.97746277 615.60800171 C409.14875945 615.6218838 408.32005613 615.63576588 407.46624058 615.65006864 C403.39094209 615.59407756 400.80271506 615.2526561 397.57362843 612.65329933 C394.77882054 609.77197357 392.86282361 606.9709588 390.85546875 603.49609375 C390.48862473 602.86931732 390.1217807 602.24254089 389.74382019 601.59677124 C388.54811964 599.54946115 387.3680847 597.49355679 386.1875 595.4375 C384.9194143 593.25913885 383.64720586 591.08321888 382.37487793 588.90733337 C381.51036154 587.42817244 380.64716894 585.94823703 379.78527832 584.46754456 C375.74090502 577.52518652 371.56949277 570.66483083 367.375 563.8125 C361.28098118 553.83348876 355.32722811 543.77942928 349.43795776 533.67843628 C343.5163022 523.52690511 337.46193758 513.46287403 331.33544922 503.43383789 C327.67179625 497.43117608 324.04510418 491.40974356 320.48046875 485.34765625 C320.11245651 484.72250122 319.74444427 484.09734619 319.36528015 483.45324707 C317.59971366 480.45214424 315.83968374 477.4479853 314.08764648 474.43896484 C313.46317627 473.37500488 312.83870605 472.31104492 312.1953125 471.21484375 C311.64891113 470.27761475 311.10250977 469.34038574 310.53955078 468.37475586 C309.1769442 466.27293629 307.85054366 464.67090958 306 463 C297.9865514 476.65882227 289.97354999 490.31783348 282 504 C276.19166758 513.96562898 270.3652497 523.92057104 264.52734375 533.86889648 C263.80336933 535.10269239 263.07941104 536.33649775 262.35546875 537.5703125 C261.99544769 538.18389114 261.63542664 538.79746979 261.26449585 539.42964172 C258.74948625 543.71767858 256.24243702 548.0103053 253.73828125 552.3046875 C244.58949116 567.98374469 235.31148562 583.57789893 225.78759766 599.03271484 C224.62793148 600.95767835 223.50507655 602.90549018 222.42724609 604.87744141 C221.93949707 605.75964355 221.45174805 606.6418457 220.94921875 607.55078125 C220.54405029 608.31688721 220.13888184 609.08299316 219.72143555 609.87231445 C216.91079558 613.34625111 213.31717668 615.59374171 208.91608536 616.36536169 C206.54995465 616.50191618 204.21400495 616.51421674 201.84413147 616.48101807 C200.49371306 616.48614462 200.49371306 616.48614462 199.11601347 616.49137473 C196.11094996 616.49794314 193.10678732 616.47599456 190.10180664 616.45410156 C187.94316631 616.45297286 185.78452445 616.45360739 183.62588501 616.45587158 C177.77304559 616.45701876 171.92053438 616.43350839 166.0677712 616.40557575 C159.94855366 616.38056303 153.82932852 616.37822019 147.71006775 616.37347412 C136.12566544 616.36104401 124.5414142 616.32822176 112.9570784 616.28807616 C99.76734552 616.2433597 86.57760541 616.2213717 73.38781559 616.20129442 C46.25845999 616.15948929 19.12923846 616.08913638 -8 616 C-6.45032169 611.96348184 -4.58359499 608.63711408 -2.16796875 605.0390625 C-1.7842511 604.46492615 -1.40053345 603.89078979 -1.00518799 603.29925537 C0.26281864 601.40473702 1.53753753 599.51484281 2.8125 597.625 C3.71183122 596.28488538 4.61083243 594.94454925 5.50952148 593.60400391 C8.33227485 589.39766146 11.16508272 585.19815083 14 581 C14.67301147 580.00286987 14.67301147 580.00286987 15.35961914 578.9855957 C21.4703899 569.93297485 27.60053651 560.89356817 33.73760986 551.85876465 C35.76215178 548.87779479 37.78539312 545.89594279 39.80859375 542.9140625 C40.59301518 541.75797363 41.377439 540.60188639 42.16186523 539.44580078 C42.54800995 538.87669983 42.93415466 538.30759888 43.33200073 537.72125244 C44.49992474 536.00011091 45.66802794 534.27909112 46.83618164 532.55810547 C52.72934119 523.87560342 58.61567121 515.18848868 64.5 506.5 C73.54469622 493.14531338 82.59879368 479.79703201 91.65722656 466.45166016 C95.20902508 461.21886483 98.75999201 455.98550521 102.31103516 450.75219727 C103.49769353 449.00339909 104.68438761 447.25462514 105.87109375 445.50585938 C109.45229981 440.22846239 113.03336497 434.95097002 116.61380005 429.67304993 C126.69950102 414.80572923 136.79367664 399.94422067 146.8984375 385.08984375 C149.03696274 381.94565515 151.17482866 378.80101921 153.3125 375.65625 C154.02510986 374.60800049 154.73771973 373.55975098 155.47192383 372.47973633 C156.90416024 370.37287581 158.33628962 368.26594253 159.76831055 366.15893555 C163.09585268 361.26445355 166.42695148 356.37250838 169.76953125 351.48828125 C172.84129236 346.99969221 175.90314905 342.50450335 178.95800781 338.00439453 C180.42596208 335.8445852 181.89660934 333.68677303 183.37011719 331.53076172 C185.45313845 328.481336 187.52567642 325.42498975 189.59231567 322.36444092 C190.39670431 321.17653777 191.20431397 319.99080848 192.01535034 318.80743408 C193.15056667 317.14976579 194.27277899 315.48321522 195.39453125 313.81640625 C196.04268799 312.86193604 196.69084473 311.90746582 197.35864258 310.92407227 C199.50212111 307.10547307 201.46555178 303.10031378 200.48828125 298.69140625 C196.34579089 291.19088384 191.48196942 284.22666179 186.55761719 277.22558594 C183.8813029 273.4015607 181.25570895 269.54297209 178.625 265.6875 C177.52099841 264.07280379 176.41683071 262.45822114 175.3125 260.84375 C174.76335937 260.04066406 174.21421875 259.23757813 173.6484375 258.41015625 C172.03710197 256.05424624 170.42495801 253.69889186 168.8125 251.34375 C161.1637175 240.17126548 153.53238171 228.9869608 145.90722656 217.79833984 C142.77213959 213.19844649 139.63602319 208.59925511 136.5 204 C135.24999495 202.16667011 133.99999495 200.33333678 132.75 198.5 C132.13125 197.5925 131.5125 196.685 130.875 195.75 C129 193 127.125 190.25 125.25 187.5 C124.3221167 186.13911255 124.3221167 186.13911255 123.37548828 184.75073242 C122.12384048 182.91497145 120.87221292 181.07919668 119.62060547 179.2434082 C116.52098153 174.69710508 113.42102131 170.15103204 110.3203125 165.60546875 C102.98337876 154.84877775 95.65627581 144.0854624 88.33642578 133.31713867 C83.72971069 126.54104911 79.11733424 119.7688573 74.5 113 C65.59686511 99.94765937 56.7159918 86.88019894 47.83398438 73.81347656 C45.68111207 70.64640108 43.52810949 67.47941424 41.375 64.3125 C40.66730469 63.27158203 39.95960938 62.23066406 39.23046875 61.15820312 C34.70097577 54.49742938 30.16490599 47.84117937 25.625 41.1875 C16.72445125 28.14235597 7.86280293 15.07080257 -1 2 C-0.67 1.34 -0.34 0.68 0 0 Z " fill="#EB0028" transform="translate(223,270)"/>
<path d="M0 0 C8.8736618 5.8838112 17.02642407 12.26105856 24.77099609 19.57617188 C26.05910312 20.66373529 27.35069143 21.747191 28.64599609 22.82617188 C37.12432986 30.26599488 44.4452821 38.875611 51.27099609 47.82617188 C51.7630957 48.46288818 52.25519531 49.09960449 52.76220703 49.75561523 C59.02373029 58.15724849 62.74983244 66.88973065 61.39990234 77.49023438 C58.80771025 89.9520771 50.77687606 98.999733 43.09350586 108.75708008 C39.57637945 113.22578484 36.15890921 117.73145279 32.89599609 122.38867188 C23.12764773 136.2913676 12.63652332 149.73637981 2.02246094 163.00292969 C0.74496373 164.60889769 -0.51321589 166.22892983 -1.77197266 167.84960938 C-11.68419312 180.42372831 -24.01762146 188.13869284 -40.06494141 190.29492188 C-81.74078123 193.99944097 -126.93442595 175.80307801 -158.80322266 149.62695312 C-187.17582856 125.64045055 -187.17582856 125.64045055 -189.75634766 109.22070312 C-190.14643472 96.16058819 -185.47406242 85.13888561 -179.41650391 73.82617188 C-178.74352348 72.54792793 -178.07100558 71.26944037 -177.39892578 69.99072266 C-172.13798473 60.03995883 -166.51857505 50.31304549 -160.77978516 40.63085938 C-157.21093469 34.590039 -153.78569961 28.47349107 -150.38946533 22.33474731 C-149.42667521 20.59455595 -148.46139742 18.85574169 -147.49609375 17.11694336 C-144.83411586 12.31551361 -142.18411274 7.50990075 -139.60009766 2.66601562 C-131.96709394 -11.53694423 -122.95013591 -22.3610907 -107.22900391 -27.42382812 C-74.03213419 -36.8516239 -27.66853156 -17.67391852 0 0 Z M-97.72900391 2.88867188 C-102.0212777 10.57899576 -102.32374093 18.19316354 -100.10400391 26.63867188 C-96.20230381 38.28907543 -87.0507774 47.69874909 -77.41650391 54.95117188 C-76.68222168 55.50571045 -75.94793945 56.06024902 -75.19140625 56.6315918 C-51.47663144 74.12721092 -18.52813988 89.016594 11.49755859 86.11523438 C17.71598895 85.09119692 22.88005849 83.51322991 27.33349609 78.95117188 C30.26789006 74.10304271 30.4415481 70.19303102 29.77099609 64.57617188 C27.19080451 56.4202492 21.62928505 50.58091805 15.77099609 44.57617188 C14.53349609 43.24585938 14.53349609 43.24585938 13.27099609 41.88867188 C-8.05445703 19.54772098 -43.08285052 -0.63677077 -74.42822266 -2.62695312 C-87.02128121 -2.89349578 -87.02128121 -2.89349578 -97.72900391 2.88867188 Z " fill="#EB0028" transform="translate(824.22900390625,151.423828125)"/>
<path d="M0 0 C1.32 0 2.64 0 4 0 C4.30292969 1.23234375 4.60585938 2.4646875 4.91796875 3.734375 C10.95418204 27.80855793 20.63521828 46.8309015 42.51953125 59.97265625 C43.67860905 60.65028555 44.83870087 61.32618463 46 62 C46.93199219 62.55558594 47.86398437 63.11117187 48.82421875 63.68359375 C64.09023555 72.06792537 81.49679568 75.1785325 98.6875 75.1875 C100.5118457 75.20586914 100.5118457 75.20586914 102.37304688 75.22460938 C109.01952081 75.23531223 115.23196885 74.84124388 121.73681641 73.44311523 C124.51732286 72.89871187 127.17549417 72.84732401 130 73 C130.33 73.99 130.66 74.98 131 76 C120.89187589 94.47346819 92.11446201 104.74430127 73.40234375 110.32763672 C55.57272981 115.31775428 33.59319397 117.49496937 16.8125 108.4375 C1.59436228 98.45440166 -5.99003695 81.04649425 -9.6796875 63.828125 C-13.03721013 44.97080611 -12.0157967 19.19471558 -2 2.1875 C-1.34 1.465625 -0.68 0.74375 0 0 Z " fill="#EB0028" transform="translate(536,430)"/>
<path d="M0 0 C10.6836153 -0.09284791 21.36713395 -0.16384004 32.05107117 -0.20724869 C37.01254571 -0.22808703 41.97374337 -0.25633595 46.93505859 -0.30175781 C51.72669176 -0.34534963 56.51805927 -0.36916532 61.30987549 -0.37950897 C63.13425882 -0.38687645 64.95862829 -0.40126339 66.78289795 -0.42292023 C69.34646559 -0.45213201 71.90894787 -0.45594867 74.47265625 -0.45410156 C75.22000534 -0.46848267 75.96735443 -0.48286377 76.73735046 -0.49768066 C82.21774659 -0.45519969 86.40670669 0.98341584 91 4 C94.4176294 7.9872343 95.06557718 12.9541168 96 18 C97.32 15.69 98.64 13.38 100 11 C98.02 8.03 96.04 5.06 94 2 C94.33 1.34 94.66 0.68 95 0 C96.43655854 -0.08131463 97.8744483 -0.13933559 99.3125 -0.1875 C100.51326172 -0.23970703 100.51326172 -0.23970703 101.73828125 -0.29296875 C104.47851584 0.06198392 105.29171079 0.89366282 107 3 C107.33 2.01 107.66 1.02 108 0 C110.97 0 113.94 0 117 0 C115.97918309 2.74835321 114.9593938 5.06015733 113.3125 7.5 C111.82084527 9.8706489 111.82084527 9.8706489 112 12.3125 C113.45425515 16.22081071 115.68049072 19.55069284 118 23 C115.04335481 24.4783226 112.25770263 24.06032783 109 24 C108.01 22.02 108.01 22.02 107 20 C106.525625 20.66 106.05125 21.32 105.5625 22 C101.85124437 24.89658976 98.54602793 24.34969446 94 24 C93.9175 24.721875 93.835 25.44375 93.75 26.1875 C92.51117218 30.83310434 89.93611193 33.37592538 86 36 C83.55122375 36.24050903 83.55122375 36.24050903 80.6105957 36.22705078 C79.50968094 36.22689972 78.40876617 36.22674866 77.27449036 36.22659302 C75.49312935 36.21110916 75.49312935 36.21110916 73.67578125 36.1953125 C72.45924362 36.1924826 71.24270599 36.18965271 69.98930359 36.18673706 C66.09693642 36.17552603 62.20479784 36.15041948 58.3125 36.125 C55.67643561 36.11497141 53.04036762 36.10584535 50.40429688 36.09765625 C43.93603861 36.07728378 37.46827573 36.03813592 31 36 C31 27.75 31 19.5 31 11 C28.03 11 25.06 11 22 11 C22.00785522 12.08269165 22.00785522 12.08269165 22.01586914 13.18725586 C22.03657358 16.43732849 22.04963918 19.68738728 22.0625 22.9375 C22.07087891 24.07380859 22.07925781 25.21011719 22.08789062 26.38085938 C22.09272461 28.00024414 22.09272461 28.00024414 22.09765625 29.65234375 C22.10551147 31.15269165 22.10551147 31.15269165 22.11352539 32.68334961 C22 35 22 35 21 36 C19.16884117 36.09851171 17.33380067 36.12972629 15.5 36.125 C14.4996875 36.12757813 13.499375 36.13015625 12.46875 36.1328125 C10 36 10 36 9 35 C8.91273777 33.21928754 8.89300959 31.4351686 8.90234375 29.65234375 C8.90556641 28.57275391 8.90878906 27.49316406 8.91210938 26.38085938 C8.92048828 25.24455078 8.92886719 24.10824219 8.9375 22.9375 C8.94201172 21.79732422 8.94652344 20.65714844 8.95117188 19.48242188 C8.96300253 16.65489649 8.9794859 13.8274736 9 11 C6.03 11 3.06 11 0 11 C0 7.37 0 3.74 0 0 Z M43 11 C43 11.66 43 12.32 43 13 C48.94 13 54.88 13 61 13 C61 12.34 61 11.68 61 11 C55.06 11 49.12 11 43 11 Z M74 11 C73.505 18.425 73.505 18.425 73 26 C79.63333333 25.76666667 79.63333333 25.76666667 82 23 C82.49574412 19.96212616 82.4568488 17.04194448 82 14 C80.40330166 11.80112077 80.40330166 11.80112077 78 11 C76.68 11 75.36 11 74 11 Z M60 23 C51.585 23.495 51.585 23.495 43 24 C43 24.66 43 25.32 43 26 C48.94 26 54.88 26 61 26 C60.67 25.01 60.34 24.02 60 23 Z " fill="#E53B58" transform="translate(204,909)"/>
<path d="M0 0 C6.581216 5.80103361 9.65785173 13.02533022 10.35546875 21.67578125 C10.12720647 29.52800363 6.93491177 36.92702488 1.37109375 42.46484375 C-1.72732195 45.25871432 -3.85903952 46.87852122 -7.95703125 47.80078125 C-7.63895508 48.66243896 -7.63895508 48.66243896 -7.31445312 49.54150391 C-6.3519935 52.16605728 -5.40442619 54.79575437 -4.45703125 57.42578125 C-4.12316406 58.32941406 -3.78929687 59.23304688 -3.4453125 60.1640625 C-1.78196616 64.81464308 -0.37761377 68.78445453 -0.95703125 73.80078125 C-2.01953125 75.67578125 -2.01953125 75.67578125 -3.95703125 76.80078125 C-9.95935818 77.56471377 -9.95935818 77.56471377 -13.0078125 75.23046875 C-15.4248131 72.21769445 -16.56256142 69.11963364 -17.70703125 65.48828125 C-17.92746094 64.84955078 -18.14789062 64.21082031 -18.375 63.55273438 C-19.79811527 59.19057669 -20.16980959 55.36960498 -19.95703125 50.80078125 C-20.63507812 50.8471875 -21.313125 50.89359375 -22.01171875 50.94140625 C-31.25123284 51.29972536 -38.17017585 49.39620045 -45.33203125 43.42578125 C-51.59813247 37.48814502 -54.56007527 31.64364417 -55.26953125 22.98828125 C-54.9136472 13.75309003 -51.76715232 7.55277517 -45.35546875 0.93359375 C-42.10962064 -1.95277932 -39.05256344 -3.79316778 -34.95703125 -5.19921875 C-34.32152344 -5.4209375 -33.68601562 -5.64265625 -33.03125 -5.87109375 C-21.40707538 -9.31874474 -9.79866925 -6.98913931 0 0 Z M-40.828125 13.1171875 C-43.61959828 17.28024972 -43.62771407 21.98902196 -42.95703125 26.80078125 C-40.4961161 33.25205882 -36.03938279 36.83595299 -29.95703125 39.80078125 C-23.18435677 42.05833941 -17.19337352 40.91224664 -10.95703125 37.80078125 C-6.63865984 35.05272672 -3.71736084 31.62749141 -1.95703125 26.80078125 C-1.07160753 21.15374555 -1.66589471 16.57823752 -4.95703125 11.80078125 C-9.22220055 7.40923657 -13.34499133 4.26510925 -19.5703125 3.46484375 C-29.14082896 3.32634134 -34.75708106 5.68967052 -40.828125 13.1171875 Z " fill="#EB0028" transform="translate(673.95703125,377.19921875)"/>
<path d="M0 0 C3.69658857 4.09265163 4.12938526 9.72509893 5 15 C5.66 15 6.32 15 7 15 C7.2475 14.46375 7.495 13.9275 7.75 13.375 C9.2962863 10.43705604 11.15907618 7.76138573 13 5 C13.69429379 3.6808418 14.37530495 2.35350594 15 1 C20.47865364 2.18167039 23.45539161 3.40158911 27 8 C31.43952869 16.67219763 36.04907904 29.16442059 34 39 C30.89997787 44.07276348 27.63992126 46.24967961 22 48 C16.75078266 48.55254919 13.44300739 47.86327143 9 45 C6.8125 42.5 6.8125 42.5 5 40 C4.01322739 38.98694531 3.01561102 37.98414138 2 37 C1.32195313 37.433125 0.64390625 37.86625 -0.0546875 38.3125 C-6.39579831 42.10662725 -11.55412187 44.5414274 -19 43 C-22.91656471 41.00611251 -25.84099087 38.86349003 -28 35 C-29.68671151 29.69890669 -28.22588929 25.87505874 -26 21 C-24.58597847 18.52807605 -22.99658254 16.23212703 -21.3125 13.9375 C-20.87550781 13.33333252 -20.43851563 12.72916504 -19.98828125 12.10668945 C-9.07431551 -2.59266157 -9.07431551 -2.59266157 0 0 Z M-24 24 C-25.57455739 27.14911479 -25.34799118 29.52008816 -25 33 C-23.22719439 35.97672584 -21.14391985 38.42804007 -18 40 C-13.78773177 40.43032996 -10.08940896 40.42629046 -6.125 38.875 C-3.38371288 36.45621725 -2.21698394 34.44812118 -1 31 C-1 26.81688816 -1.67746719 25.37215325 -4.4375 22.1875 C-8.28207595 18.90554492 -10.73802781 18.60879373 -15.671875 18.640625 C-19.59004236 19.24544278 -21.30358816 21.16876757 -24 24 Z M8.625 28.3125 C6.6482969 31.58166283 6.4513061 33.23752754 7 37 C8.39686088 40.33694544 9.67676761 41.76911972 12.625 43.875 C17.03679756 45.34559919 20.54733297 45.36942062 25 44 C28.6192756 41.05933857 30.74091378 38.89996559 31.375 34.25 C30.86474888 29.82782362 29.14512961 28.07523784 26 25 C19.31374521 21.41225353 13.89130608 23.18478092 8.625 28.3125 Z " fill="#EB0028" transform="translate(613,315)"/>
<path d="M0 0 C3.375 1 3.375 1 5.3125 2.75 C6.54217908 5.35402628 6.61223981 7.15312226 6.375 10 C7.365 9.34 8.355 8.68 9.375 8 C14.92898223 7.31076122 19.84610145 7.2757849 24.9375 9.6875 C27.375 12 27.375 12 28.875 14.6875 C30.22818312 17.34647708 30.22818312 17.34647708 33.5625 17.8125 C34.9546875 17.9053125 34.9546875 17.9053125 36.375 18 C36.66375 17.195625 36.9525 16.39125 37.25 15.5625 C38.375 13 38.375 13 40.375 12 C43.56700721 11.72243416 45.7820908 11.75035402 48.75 13 C50.94336952 15.69953171 51.00661549 17.705872 50.82421875 21.12109375 C50.375 23 50.375 23 48.25 25.0625 C44.77106684 26.19693473 42.86275675 26.06149118 39.375 25 C38.88 24.484375 38.385 23.96875 37.875 23.4375 C36.33644927 21.65212332 36.33644927 21.65212332 33.1875 21.8125 C32.259375 21.874375 31.33125 21.93625 30.375 22 C30.354375 22.86625 30.33375 23.7325 30.3125 24.625 C29.00561507 29.32978577 26.3869449 31.37429622 22.375 34 C18.9375 35.375 18.9375 35.375 16.375 36 C16.75404208 39.29075996 16.75404208 39.29075996 18.375 42 C18.75 44.8125 18.75 44.8125 18.375 48 C16.3125 50.4375 16.3125 50.4375 13.375 52 C9.53749192 52 7.33960035 51.81388154 4.375 49.3125 C2.97291312 46.0701741 3.24355808 44.32361065 4.375 41 C7.26126661 38.72136847 8.6797018 38 12.375 38 C12.045 37.01 11.715 36.02 11.375 35 C10.446875 34.54625 9.51875 34.0925 8.5625 33.625 C4.9583596 31.78759509 3.45051253 30.45918756 1.375 27 C0.04348434 22.20848745 -0.00888876 18.48732003 2.375 14 C1.488125 14.103125 0.60125 14.20625 -0.3125 14.3125 C-3.625 14 -3.625 14 -6.5 11.8125 C-8.625 9 -8.625 9 -9.25 6.4375 C-8.625 4 -8.625 4 -6.5625 1.625 C-3.625 0 -3.625 0 0 0 Z M6.375 16 C7.375 18 7.375 18 7.375 18 Z M5.375 18 C6.375 22 6.375 22 6.375 22 Z " fill="#EB0028" transform="translate(678.625,330)"/>
<path d="M0 0 C1 1 2 2 3 3 C3.63832764 3.12141357 4.27665527 3.24282715 4.93432617 3.36791992 C7.652869 4.19977282 8.17916028 5.25872023 9.61328125 7.67578125 C10.05607422 8.42150391 10.49886719 9.16722656 10.95507812 9.93554688 C11.40302734 10.71994141 11.85097656 11.50433594 12.3125 12.3125 C13.01342773 13.47168945 13.01342773 13.47168945 13.72851562 14.65429688 C14.38303711 15.77868164 14.38303711 15.77868164 15.05078125 16.92578125 C15.44950439 17.61067627 15.84822754 18.29557129 16.2590332 19.0012207 C17.16941765 21.45700898 16.98762808 22.59823907 16 25 C13.85546875 26.484375 13.85546875 26.484375 11.1875 27.75 C10.31480469 28.17796875 9.44210937 28.6059375 8.54296875 29.046875 C6 30 6 30 2 30 C1.505 31.485 1.505 31.485 1 33 C-0.6396875 33.1546875 -0.6396875 33.1546875 -2.3125 33.3125 C-6.27122468 34.05056731 -6.43173109 34.34741923 -9 37 C-11.12109375 38.203125 -11.12109375 38.203125 -13.4375 39.25 C-14.19933594 39.60578125 -14.96117187 39.9615625 -15.74609375 40.328125 C-18.3842752 41.11454997 -19.44835327 40.96502596 -22 40 C-23.2644043 38.48120117 -23.2644043 38.48120117 -24.32421875 36.54296875 C-24.90719727 35.49206055 -24.90719727 35.49206055 -25.50195312 34.41992188 C-25.89318359 33.68322266 -26.28441406 32.94652344 -26.6875 32.1875 C-27.09033203 31.46240234 -27.49316406 30.73730469 -27.90820312 29.99023438 C-31.55120783 23.32054569 -31.55120783 23.32054569 -32 20 C-31.34 19.34 -30.68 18.68 -30 18 C-30.32041397 15.39719432 -30.32041397 15.39719432 -31 13 C-24.49385874 11.16002793 -18.27342817 11.42628588 -12 14 C-11.5875 12.783125 -11.175 11.56625 -10.75 10.3125 C-8.71712682 4.8786589 -6.31913469 0 0 0 Z M4 7 C5 9 5 9 5 9 Z M8 14 C9 16 9 16 9 16 Z M-28 21 C-27 23 -27 23 -27 23 Z M-25 26 C-24 28 -24 28 -24 28 Z M-21 33 C-21 33.66 -21 34.32 -21 35 C-19.68 34.67 -18.36 34.34 -17 34 C-18.32 33.67 -19.64 33.34 -21 33 Z " fill="#EB0028" transform="translate(639,435)"/>
<path d="M0 0 C6.30639623 2.01388665 12.50742606 4.23924226 18 8 C19.36834526 10.67766386 19.2451979 11.93502624 19 15 C16.08291076 16.98362069 14.87619096 16.9876191 11.25 16.625 C9.64125 16.315625 9.64125 16.315625 8 16 C9.32 16.66 10.64 17.32 12 18 C12 18.66 12 19.32 12 20 C15.97072707 20.59138488 17.96799057 20.67063805 21.3984375 18.44140625 C22.98327433 17.16686919 24.54575696 15.86392167 26.08203125 14.53125 C28 13 28 13 30 13 C30.12375 12.21625 30.2475 11.4325 30.375 10.625 C31 8 31 8 33 6 C33.99 6 34.98 6 36 6 C36 6.99 36 7.98 36 9 C35.01 9.66 34.02 10.32 33 11 C32.26393501 14.56769552 32.26393501 14.56769552 32 18 C32.66 18 33.32 18 34 18 C34.0928125 16.63875 34.0928125 16.63875 34.1875 15.25 C35 12 35 12 37.375 9.5625 C38.24125 9.046875 39.1075 8.53125 40 8 C40.99 8.33 41.98 8.66 43 9 C42 12 42 12 39.9375 13.1875 C39.298125 13.455625 38.65875 13.72375 38 14 C38 14.99 38 15.98 38 17 C38.5775 16.71125 39.155 16.4225 39.75 16.125 C41.83333333 15.08333333 43.91666667 14.04166667 46 13 C46.495 14.485 46.495 14.485 47 16 C45.68 17.32 44.36 18.64 43 20 C43.763125 19.484375 44.52625 18.96875 45.3125 18.4375 C46.199375 17.963125 47.08625 17.48875 48 17 C48.99 17.33 49.98 17.66 51 18 C50.505 19.485 50.505 19.485 50 21 C48.00390625 21.5546875 48.00390625 21.5546875 45.5625 21.875 C43.11872569 22.29307665 43.11872569 22.29307665 41 23 C39.86454438 25.29534258 39.86454438 25.29534258 39 28 C36.5872216 30.45233214 34.0565358 32.41512958 31 34 C27.5 33.875 27.5 33.875 25 33 C24.9175 33.94875 24.835 34.8975 24.75 35.875 C24 39 24 39 21.9375 40.375 C21.298125 40.58125 20.65875 40.7875 20 41 C20 37.23312136 20.23537317 36.08809695 22 33 C20.02 34.32 18.04 35.64 16 37 C15.67 35.68 15.34 34.36 15 33 C16.98 31.68 18.96 30.36 21 29 C20.34 28.67 19.68 28.34 19 28 C18.54109375 28.37253906 18.0821875 28.74507813 17.609375 29.12890625 C16.99578125 29.60199219 16.3821875 30.07507813 15.75 30.5625 C15.14671875 31.03816406 14.5434375 31.51382812 13.921875 32.00390625 C12 33 12 33 9.765625 32.65234375 C9.18296875 32.43707031 8.6003125 32.22179687 8 32 C8.66 31.236875 9.32 30.47375 10 29.6875 C12.29850538 27.15722061 12.29850538 27.15722061 12 24 C14.64 24.33 17.28 24.66 20 25 C20 24.34 20 23.68 20 23 C18.700625 23.020625 17.40125 23.04125 16.0625 23.0625 C14.70834367 23.08399454 13.35243917 23.07148199 12 23 C11.67 22.67 11.34 22.34 11 22 C10.01 23.65 9.02 25.3 8 27 C3.25 26.125 3.25 26.125 1 25 C0.17361624 27.89234315 0 29.88742431 0 33 C-1.4589426 32.52269162 -2.91713496 32.04308958 -4.375 31.5625 C-5.18710937 31.29566406 -5.99921875 31.02882813 -6.8359375 30.75390625 C-9 30 -9 30 -11 29 C-10.6875 27.0625 -10.6875 27.0625 -10 25 C-9.01 24.67 -8.02 24.34 -7 24 C-7 23.01 -7 22.02 -7 21 C-7.66 20.566875 -8.32 20.13375 -9 19.6875 C-9.66 19.130625 -10.32 18.57375 -11 18 C-11.25 14.8125 -11.25 14.8125 -11 12 C-8.04112673 10.52056337 -5.26320703 10.94066896 -2 11 C-1.67 11 -1.34 11 -1 11 C-1.99 10.34 -2.98 9.68 -4 9 C-2.80100302 5.9168649 -1.52299523 2.93720508 0 0 Z M32 21 C32 22.32 32 23.64 32 25 C32.66 23.68 33.32 22.36 34 21 C33.34 21 32.68 21 32 21 Z " fill="#EB0028" transform="translate(579,353)"/>
<path d="M0 0 C3.78443516 2.69610086 6.30988589 5.82809517 7.79296875 10.27734375 C8.16120363 15.89292564 8.03188281 19.47121321 4.79296875 24.27734375 C-0.19952599 29.31704884 -3.79477832 31.41829088 -11.01953125 31.52734375 C-17.83248992 31.43716018 -21.72670963 30.01282874 -26.51953125 25.15234375 C-29.75833901 21.10383405 -30.56075425 17.40632721 -30.20703125 12.27734375 C-29.37162793 7.07505944 -27.4070762 4.08194987 -23.26953125 0.83984375 C-16.16630303 -4.18305559 -7.51733759 -4.2163111 0 0 Z M-23.20703125 17.27734375 C-23.20703125 17.60734375 -23.20703125 17.93734375 -23.20703125 18.27734375 C-14.63073202 18.93612065 -8.6147885 19.03398217 -1.68359375 13.58984375 C-1.19632813 13.15671875 -0.7090625 12.72359375 -0.20703125 12.27734375 C-2.7045209 9.7798541 -3.7356821 9.86770145 -7.20703125 9.71484375 C-13.95675638 9.78617506 -18.30796438 12.84586678 -23.20703125 17.27734375 Z " fill="#EB0028" transform="translate(581.20703125,416.72265625)"/>
<path d="M0 0 C9.24 0 18.48 0 28 0 C28 2.97 28 5.94 28 9 C22.06 9 16.12 9 10 9 C10 10.32 10 11.64 10 13 C15.94 13 21.88 13 28 13 C28 15.97 28 18.94 28 22 C22.06 22 16.12 22 10 22 C10 23.32 10 24.64 10 26 C15.94 26 21.88 26 28 26 C28 28.64 28 31.28 28 34 C18.76 34 9.52 34 0 34 C0 22.78 0 11.56 0 0 Z " fill="#E6052C" transform="translate(236,910)"/>
<path d="M0 0 C3.84724728 1.95859862 7.08727899 4.0682957 9 8 C9.56784923 12.19577486 9.42158935 15.81427994 8 19.8125 C2.85889513 25.43558345 -4.36264637 26.77015864 -11.625 27.75 C-12.44484375 27.87503906 -13.2646875 28.00007813 -14.109375 28.12890625 C-18.44184893 28.76275694 -22.60937773 29.14209134 -27 29 C-25.70441966 18.98592607 -21.32289567 9.0045089 -14 2 C-9.54696651 -0.72748301 -5.07765931 -0.65776945 0 0 Z " fill="#EB0028" transform="translate(705,404)"/>
<path d="M0 0 C2.2593366 2.2593366 3.65391571 3.90098131 5.3125 6.5 C8.78395399 11.4033 13.11580409 12.73077305 18.6875 14.4375 C21.70577113 15.39277773 22.83976989 15.83005897 25.0625 18.1875 C25.371875 18.785625 25.68125 19.38375 26 20 C22.59287819 23.97497544 18.67239145 25.86793788 14 28 C14.66 29.65 15.32 31.3 16 33 C12.7 33.99 9.4 34.98 6 36 C5.505 33.525 5.505 33.525 5 31 C4.18015625 31.3609375 3.3603125 31.721875 2.515625 32.09375 C1.43796875 32.5578125 0.3603125 33.021875 -0.75 33.5 C-1.81734375 33.9640625 -2.8846875 34.428125 -3.984375 34.90625 C-7 36 -7 36 -11 36 C-11.37647059 28.72156863 -11.37647059 28.72156863 -9.5 25.125 C-7.14326212 20.21512942 -7.06777254 15.01634517 -8.6796875 9.80078125 C-9.3762228 8.16558171 -10.17784973 6.57578802 -11 5 C-7.37 3.35 -3.74 1.7 0 0 Z M1 20 C1.66 21.32 2.32 22.64 3 24 C3 22.68 3 21.36 3 20 C5.475 20.99 5.475 20.99 8 22 C7.34 20.68 6.68 19.36 6 18 C3.67642489 17.81509993 3.67642489 17.81509993 1 20 Z M8 22 C9 24 9 24 9 24 Z M3 24 C4 26 4 26 4 26 Z M9 24 C9 25.32 9 26.64 9 28 C9.66 28 10.32 28 11 28 C10.34 26.68 9.68 25.36 9 24 Z M4 26 C5 28 5 28 5 28 Z M5 28 C5.33 28.99 5.66 29.98 6 31 C6.33 30.01 6.66 29.02 7 28 C6.34 28 5.68 28 5 28 Z " fill="#EB0028" transform="translate(604,407)"/>
<path d="M0 0 C7 0 7 0 8.89624023 1.8359375 C9.36231689 2.67382812 9.82839355 3.51171875 10.30859375 4.375 C10.82744141 5.27734375 11.34628906 6.1796875 11.88085938 7.109375 C12.39455078 8.06328125 12.90824219 9.0171875 13.4375 10 C13.97826172 10.95390625 14.51902344 11.9078125 15.07617188 12.890625 C16.40767148 15.24726147 17.70698044 17.62203299 19 20 C19.33 13.4 19.66 6.8 20 0 C21.98 0 23.96 0 26 0 C26 11.22 26 22.44 26 34 C20 34 20 34 18.2331543 32.28759766 C17.76820557 31.50433105 17.30325684 30.72106445 16.82421875 29.9140625 C16.30666016 29.06585937 15.78910156 28.21765625 15.25585938 27.34375 C14.73830078 26.4465625 14.22074219 25.549375 13.6875 24.625 C13.15060547 23.73554687 12.61371094 22.84609375 12.06054688 21.9296875 C8.50872298 16.01744596 8.50872298 16.01744596 7 13 C6.67 19.93 6.34 26.86 6 34 C4.02 34 2.04 34 0 34 C0 22.78 0 11.56 0 0 Z " fill="#000000" transform="translate(326,908)"/>
<path d="M0 0 C4.8043068 1.56269119 8.6581864 3.61984887 12.1875 7.25 C13.40157014 11.35916047 13.08675836 14.8778131 12 19 C9.30421756 23.76946124 6.07128058 25.19496793 1 27 C-0.155 27.4125 -1.31 27.825 -2.5 28.25 C-6.34951046 29.0748951 -9.16667955 28.7823103 -13 28 C-14.0257259 23.58937864 -14.03684712 21.07369424 -12 17 C-11.37351562 16.93941406 -10.74703125 16.87882812 -10.1015625 16.81640625 C-8.87566406 16.69072266 -8.87566406 16.69072266 -7.625 16.5625 C-6.81289063 16.48128906 -6.00078125 16.40007812 -5.1640625 16.31640625 C-2.95727195 16.10909886 -2.95727195 16.10909886 -1 15 C-0.67 14.01 -0.34 13.02 0 12 C-0.91523437 11.89042969 -1.83046875 11.78085937 -2.7734375 11.66796875 C-3.96195313 11.50941406 -5.15046875 11.35085938 -6.375 11.1875 C-7.55835938 11.03667969 -8.74171875 10.88585937 -9.9609375 10.73046875 C-13 10 -13 10 -15 7 C-15.3125 4.4375 -15.3125 4.4375 -15 2 C-10.27845912 -1.14769392 -5.5221821 -0.65676438 0 0 Z " fill="#EB0028" transform="translate(726,363)"/>
<path d="M0 0 C9.57 0 19.14 0 29 0 C29 2.97 29 5.94 29 9 C26.03 9 23.06 9 20 9 C20 17.58 20 26.16 20 35 C16.37 35 12.74 35 9 35 C9 26.42 9 17.84 9 9 C6.03 9 3.06 9 0 9 C0 6.03 0 3.06 0 0 Z " fill="#E8072E" transform="translate(205,910)"/>
<path d="M0 0 C1.2265625 1.671875 1.2265625 1.671875 1.2265625 5.671875 C3.8665625 6.661875 6.5065625 7.651875 9.2265625 8.671875 C8.8965625 9.991875 8.5665625 11.311875 8.2265625 12.671875 C5.46380073 12.14919034 2.9004749 11.56317913 0.2265625 10.671875 C0.0409375 11.27 -0.1446875 11.868125 -0.3359375 12.484375 C-2.43875208 15.68431023 -5.20714344 16.69797544 -8.7734375 17.671875 C-15.13485943 18.37869966 -19.46115759 17.27242027 -24.7734375 13.671875 C-28.85468626 9.80542881 -29.68553271 6.02074024 -30.7734375 0.671875 C-29.01 0.7646875 -29.01 0.7646875 -27.2109375 0.859375 C-22.83505469 0.87483748 -19.73558692 -0.45918659 -15.7734375 -2.328125 C-10.70908271 -4.06066743 -4.33023686 -3.24290866 0 0 Z " fill="#EB0028" transform="translate(645.7734375,478.328125)"/>
<path d="M0 0 C-2.1854204 2.98069711 -4.37372861 5.95926294 -6.5625 8.9375 C-7.47612305 10.18370117 -7.47612305 10.18370117 -8.40820312 11.45507812 C-17.77057714 24.18592534 -17.77057714 24.18592534 -21 28 C-21.33 28 -21.66 28 -22 28 C-22.33 26.02 -22.66 24.04 -23 22 C-23.54269531 22.42152344 -24.08539062 22.84304688 -24.64453125 23.27734375 C-25.71767578 24.09912109 -25.71767578 24.09912109 -26.8125 24.9375 C-27.52019531 25.48277344 -28.22789062 26.02804687 -28.95703125 26.58984375 C-31 28 -31 28 -34 29 C-35.625 26.75 -35.625 26.75 -37 24 C-36.35535342 20.56188491 -34.10152022 19.27026405 -31.375 17.375 C-30.42753906 16.76785156 -30.42753906 16.76785156 -29.4609375 16.1484375 C-28.97882812 15.76945312 -28.49671875 15.39046875 -28 15 C-28 14.34 -28 13.68 -28 13 C-28.99 12.34 -29.98 11.68 -31 11 C-31 10.34 -31 9.68 -31 9 C-27.07151657 7.54578059 -23.13886796 6.10366017 -19.2019043 4.67260742 C-17.86312732 4.18405361 -16.52554642 3.6922092 -15.18920898 3.19702148 C-13.26851206 2.48594282 -11.34382935 1.78679599 -9.41796875 1.08984375 C-8.26063232 0.66566162 -7.1032959 0.24147949 -5.91088867 -0.19555664 C-3 -1 -3 -1 0 0 Z " fill="#EB0028" transform="translate(723,433)"/>
<path d="M0 0 C1.12921875 -0.00386719 1.12921875 -0.00386719 2.28125 -0.0078125 C4.473535 0.12341583 6.39319137 0.52168662 8.5 1.125 C8.17 3.105 7.84 5.085 7.5 7.125 C6.84773438 7.01800781 6.19546875 6.91101563 5.5234375 6.80078125 C-0.02095777 6.04026685 -3.74552123 5.67800289 -8.5 9.125 C-10.92259675 12.09818692 -10.86204501 15.39964552 -10.75 19.16015625 C-10.37306784 22.12260746 -9.42785857 23.86475202 -7.5 26.125 C-2.89210941 29.19692706 2.3055777 27.87138301 7.5 27.125 C7.83 28.775 8.16 30.425 8.5 32.125 C3.30159171 34.80804944 -2.13771426 35.11355936 -7.71875 33.47265625 C-11.90144555 31.65443225 -14.82184869 29.49210981 -16.87890625 25.25 C-18.49878105 19.70778683 -18.18511866 14.18035597 -16.375 8.75 C-12.01765063 2.64971088 -7.49891203 -0.02568121 0 0 Z " fill="#000000" transform="translate(373.5,907.875)"/>
<path d="M0 0 C1.97599865 0.23053318 3.9517661 0.46580532 5.921875 0.7421875 C8.29533036 1.03663873 10.61093201 1.07465837 13 1 C13.2475 1.78375 13.495 2.5675 13.75 3.375 C15.15389099 6.32317108 16.00675737 6.9024777 19 8 C18.6875 10.375 18.6875 10.375 18 13 C17.01 13.66 16.02 14.32 15 15 C14.34444881 17.52733235 14.34444881 17.52733235 14 20 C13 21 13 21 10.4375 21.0625 C9.633125 21.041875 8.82875 21.02125 8 21 C8 20.34 8 19.68 8 19 C7.443125 19.350625 6.88625 19.70125 6.3125 20.0625 C3.35596292 21.26109611 1.95950256 21.16822469 -1 20 C-2.125 17.5 -2.125 17.5 -3 15 C-3.99 14.67 -4.98 14.34 -6 14 C-6.1875 11.625 -6.1875 11.625 -6 9 C-5.01 8.34 -4.02 7.68 -3 7 C-2.27306096 5.02111039 -1.60183749 3.02045442 -1 1 C-0.67 0.67 -0.34 0.34 0 0 Z " fill="#EB0028" transform="translate(662,471)"/>
<path d="M0 0 C5.77973941 0.43785905 9.91538281 1.00137961 15 4 C14.54372482 10.69203595 12.45826351 17.24496047 9 23 C6.47265625 24.41796875 6.47265625 24.41796875 4 25 C1.6875 24 1.6875 24 0 22 C-0.3125 18.875 -0.3125 18.875 0 16 C1 15 1 15 3.5 14.875 C6 15 6 15 7 16 C7.66 14.68 8.32 13.36 9 12 C5.7 11.67 2.4 11.34 -1 11 C-2.32 13.64 -3.64 16.28 -5 19 C-7.875 19.125 -7.875 19.125 -11 19 C-13 17 -13 17 -13.1875 13.9375 C-13 11 -13 11 -12 10 C-9.66702567 9.95907063 -7.33294775 9.95758277 -5 10 C-3.35 6.7 -1.7 3.4 0 0 Z " fill="#EB0028" transform="translate(591,459)"/>
<path d="M0 0 C1.65 0.33 3.3 0.66 5 1 C5.02578125 1.62648438 5.0515625 2.25296875 5.078125 2.8984375 C5.13484375 3.71570313 5.1915625 4.53296875 5.25 5.375 C5.29640625 6.18710937 5.3428125 6.99921875 5.390625 7.8359375 C5.59171875 8.55007813 5.7928125 9.26421875 6 10 C7.31200559 10.70771714 8.64987063 11.36804042 10 12 C11.33986316 12.87966241 12.66225105 13.78635049 13.96875 14.71484375 C15.07283203 15.49698242 15.07283203 15.49698242 16.19921875 16.29492188 C16.95847656 16.83697266 17.71773437 17.37902344 18.5 17.9375 C19.25925781 18.47568359 20.01851562 19.01386719 20.80078125 19.56835938 C26.54786952 23.64969789 26.54786952 23.64969789 29.11816406 25.64111328 C31.2335725 27.16866432 32.69288958 27.52817837 35.25 27.9375 C40.02505012 28.86400226 43.73980626 30.67625796 48 33 C47.67 34.65 47.34 36.3 47 38 C43.17716957 37.45388137 41.58920048 35.76181385 39 33 C36.13647692 31.56823846 33.50372504 31.80619594 30.3125 31.6875 C24.33016479 31.27408659 20.69539429 30.62685817 16 27 C15.09121094 26.34902344 14.18242188 25.69804687 13.24609375 25.02734375 C11.30540956 23.63318862 9.37373587 22.22636873 7.453125 20.8046875 C5.66779215 19.49127384 3.84416375 18.2294425 2 17 C2 15.68 2 14.36 2 13 C2.66 12.67 3.32 12.34 4 12 C3.34 11.34 2.68 10.68 2 10 C1.60235737 8.01178687 1.26224651 6.01055661 1 4 C0.34 4 -0.32 4 -1 4 C-0.67 2.68 -0.34 1.36 0 0 Z M8 15 C9.39704561 19.19113683 12.40438148 20.79770668 15.875 23.25 C16.51308594 23.72179687 17.15117188 24.19359375 17.80859375 24.6796875 C19.48034659 25.87329808 21.23676749 26.94620928 23 28 C23.99 27.67 24.98 27.34 26 27 C23.7524911 25.37145746 21.50215838 23.74709026 19.25 22.125 C18.61578125 21.66480469 17.9815625 21.20460938 17.328125 20.73046875 C14.31304443 18.56337959 11.41702887 16.50142178 8 15 Z " fill="#EB0028" transform="translate(625,277)"/>
<path d="M0 0 C8.58 0 17.16 0 26 0 C26 1.65 26 3.3 26 5 C22.7 5 19.4 5 16 5 C16 14.57 16 24.14 16 34 C14.02 34 12.04 34 10 34 C10 24.43 10 14.86 10 5 C6.7 5 3.4 5 0 5 C0 3.35 0 1.7 0 0 Z " fill="#000000" transform="translate(393,908)"/>
<path d="M0 0 C7.98676972 1.51473219 15.40122878 4.16802552 23 7 C23 7.99 23 8.98 23 10 C21.02029601 11.89039403 19.09717738 13.52930302 16.9375 15.1875 C16.09541992 15.88262695 16.09541992 15.88262695 15.23632812 16.59179688 C11.10873339 19.79481039 8.37258036 20.52699196 3 20 C1.28878246 15.47849025 0.64776388 11.44382847 0.375 6.625 C0.30023437 5.37976563 0.22546875 4.13453125 0.1484375 2.8515625 C0.09945312 1.91054688 0.05046875 0.96953125 0 0 Z " fill="#EB0028" transform="translate(745,359)"/>
<path d="M0 0 C0.804375 0.61875 1.60875 1.2375 2.4375 1.875 C6.31640608 4.49814512 10.44323651 5.23041328 15 6 C13.83791965 13.32110622 11.440745 18.09297127 7 24 C5.06043186 23.744398 3.12334011 23.46995354 1.1875 23.1875 C0.10855469 23.03667969 -0.97039063 22.88585937 -2.08203125 22.73046875 C-5.06440991 21.98387597 -6.14223479 21.37924316 -8 19 C-7.67 18.34 -7.34 17.68 -7 17 C-6.4225 17.495 -5.845 17.99 -5.25 18.5 C-2.89599371 20.36980013 -2.89599371 20.36980013 1 20 C-1.42130331 17.57869669 -2.80111377 17.47159496 -6.125 16.875 C-7.03507813 16.70742188 -7.94515625 16.53984375 -8.8828125 16.3671875 C-9.58148437 16.24601562 -10.28015625 16.12484375 -11 16 C-10.45603827 12.50051286 -9.69469296 10.06625475 -7.625 7.1875 C-6.99464844 6.28064453 -6.99464844 6.28064453 -6.3515625 5.35546875 C-5.68253906 4.68451172 -5.68253906 4.68451172 -5 4 C-4.01 4 -3.02 4 -2 4 C-1.34 2.68 -0.68 1.36 0 0 Z M-4 5 C-6.475 9.455 -6.475 9.455 -9 14 C-7.84353875 15.34851359 -7.84353875 15.34851359 -4.75 15.5625 C-1.03469466 15.41166486 -1.03469466 15.41166486 0.57421875 13.25 C2.94385085 9.85863431 2.94385085 9.85863431 4 6 C1.36 5.67 -1.28 5.34 -4 5 Z M9 7 C9.33 7.66 9.66 8.32 10 9 C10.66 9 11.32 9 12 9 C12 8.34 12 7.68 12 7 C11.01 7 10.02 7 9 7 Z " fill="#EB0028" transform="translate(566,384)"/>
<path d="M0 0 C2.475 0.495 2.475 0.495 5 1 C4.690625 1.556875 4.38125 2.11375 4.0625 2.6875 C2.16292154 6.82187664 1.85288285 9.66644634 3 14 C3.85332087 19.33325545 2.6287685 21.97492698 -0.375 26.25 C-1.57477641 27.83982718 -2.78215776 29.42396886 -4 31 C-4.99 32.485 -4.99 32.485 -6 34 C-6.61875 33.835 -7.2375 33.67 -7.875 33.5 C-11.09347921 32.74271077 -13.43602311 33.271091 -16.625 34 C-17.44226563 34.185625 -18.25953125 34.37125 -19.1015625 34.5625 C-19.72804688 34.706875 -20.35453125 34.85125 -21 35 C-21.33 33.68 -21.66 32.36 -22 31 C-20.2675 30.8453125 -20.2675 30.8453125 -18.5 30.6875 C-12.05715187 29.11105844 -9.31605927 23.29689113 -6 18 C-5.54109375 17.31679688 -5.0821875 16.63359375 -4.609375 15.9296875 C-2.1742701 12.10554389 -1.80622725 9.45677326 -2 5 C-1 2.125 -1 2.125 0 0 Z M-1 16 C-4.96 21.94 -4.96 21.94 -9 28 C-8.01 28 -7.02 28 -6 28 C-4.26381545 26.11592831 -4.26381545 26.11592831 -2.75 23.6875 C-2.20859375 22.88699219 -1.6671875 22.08648437 -1.109375 21.26171875 C0.36487002 18.92512282 0.36487002 18.92512282 -1 16 Z " fill="#EB0028" transform="translate(734,395)"/>
<path d="M0 0 C3 1 3 1 4.9375 4.38671875 C5.63518825 5.8153819 6.32228044 7.2492568 7 8.6875 C7.34289062 9.39583984 7.68578125 10.10417969 8.0390625 10.83398438 C8.71652308 12.23415577 9.3872113 13.63762597 10.05078125 15.04443359 C10.89069265 16.77480663 11.81465174 18.46382734 12.75 20.14453125 C14 23 14 23 13.93359375 25.89453125 C14.02651687 30.24005369 15.88435994 33.01120685 18.0625 36.6875 C19.48178046 39.10144974 20.76200283 41.48010504 22 44 C21.67 44.99 21.34 45.98 21 47 C21.87483915 49.16715557 21.87483915 49.16715557 23 51 C21.515 51.495 21.515 51.495 20 52 C18.16280865 48.7006372 16.36004088 45.38360713 14.5625 42.0625 C14.04623047 41.13630859 13.52996094 40.21011719 12.99804688 39.25585938 C10.2129718 34.06797443 8.61574016 30.01061288 8.28149414 24.14135742 C7.76921951 20.24442697 5.81888912 17.02384804 3.9375 13.625 C1.31319071 8.77114931 0 5.57243261 0 0 Z " fill="#EB0028" transform="translate(645,317)"/>
<path d="M0 0 C1.98 0 3.96 0 6 0 C6 11.22 6 22.44 6 34 C4.02 34 2.04 34 0 34 C0 22.78 0 11.56 0 0 Z " fill="#000000" transform="translate(386,908)"/>
<path d="M0 0 C-0.54769371 4.18238834 -2.89888889 6.59868545 -5.5625 9.75 C-6.38878906 10.73484375 -7.21507812 11.7196875 -8.06640625 12.734375 C-8.70449219 13.48203125 -9.34257813 14.2296875 -10 15 C-13.71415741 14.36651054 -16.19130299 12.71342582 -19.25 10.5625 C-20.14203125 9.94503906 -21.0340625 9.32757813 -21.953125 8.69140625 C-22.62859375 8.13324219 -23.3040625 7.57507813 -24 7 C-24 6.34 -24 5.68 -24 5 C-21.60468067 4.35220924 -19.20878252 3.70670991 -16.8125 3.0625 C-16.13896484 2.88009766 -15.46542969 2.69769531 -14.77148438 2.50976562 C-9.73062038 1.1573387 -5.22697454 0 0 0 Z " fill="#EB0028" transform="translate(700,463)"/>
<path d="M0 0 C3.80923234 1.26150889 7.61780704 2.52498143 11.42578125 3.7902832 C12.72149994 4.22051244 14.01739755 4.65020317 15.31347656 5.0793457 C17.17559937 5.69601348 19.03702862 6.31477431 20.8984375 6.93359375 C22.01911621 7.30540771 23.13979492 7.67722168 24.29443359 8.06030273 C27 9 27 9 29 10 C28.67 11.65 28.34 13.3 28 15 C21.77698112 14.08193423 16.11662061 12.17104162 10.1875 10.125 C8.59518555 9.59712891 8.59518555 9.59712891 6.97070312 9.05859375 C5.45959961 8.53845703 5.45959961 8.53845703 3.91796875 8.0078125 C2.53774536 7.53819092 2.53774536 7.53819092 1.12963867 7.05908203 C0.07546753 6.53483643 0.07546753 6.53483643 -1 6 C-1.33 5.01 -1.66 4.02 -2 3 C-1.34 2.01 -0.68 1.02 0 0 Z " fill="#EB0028" transform="translate(745,351)"/>
<path d="M0 0 C1.484375 1.2578125 1.484375 1.2578125 3 3 C3.0825 4.27875 3.165 5.5575 3.25 6.875 C3.77989723 13.57599208 7.08711105 19.63133151 11 25 C13.59173801 26.42026348 13.59173801 26.42026348 16 27 C16 27.99 16 28.98 16 30 C13.66046261 29.4801028 11.64217968 28.84290815 9.4375 27.875 C6.91342919 26.68543553 6.91342919 26.68543553 4 28 C-2.78486473 15.59941391 -2.78486473 15.59941391 -1.25 10 C-1.01023437 9.30003906 -0.77046875 8.60007812 -0.5234375 7.87890625 C0.23176542 5.80119985 0.23176542 5.80119985 -0.875 2.9375 C-1.431875 1.9784375 -1.431875 1.9784375 -2 1 C-1.34 0.67 -0.68 0.34 0 0 Z M1 14 C2 16 2 16 2 16 Z M2 16 C3 18 3 18 3 18 Z M3 18 C4 20 4 20 4 20 Z M4 20 C5 22 5 22 5 22 Z " fill="#EB0028" transform="translate(661,330)"/>
<path d="M0 0 C-2.16502198 4.7014938 -5.07305396 8.61269771 -9 12 C-14.54746579 12.61638509 -20.18385963 8.57939534 -25 6 C-25 5.34 -25 4.68 -25 4 C-24.40985107 3.91435791 -23.81970215 3.82871582 -23.21166992 3.74047852 C-20.53652607 3.35064401 -17.86201571 2.95661986 -15.1875 2.5625 C-14.25873047 2.42779297 -13.32996094 2.29308594 -12.37304688 2.15429688 C-11.48037109 2.02216797 -10.58769531 1.89003906 -9.66796875 1.75390625 C-8.43469849 1.57323608 -8.43469849 1.57323608 -7.17651367 1.38891602 C-4.68380497 0.94349987 -2.54410014 0 0 0 Z " fill="#EB0028" transform="translate(788,344)"/>
<path d="M0 0 C3.17395616 0.42736356 4.11909465 0.55659465 6.4375 2.875 C5.98295455 8.32954545 5.98295455 8.32954545 3.4375 10.875 C-0.37212278 11.20627155 -3.46689167 11.28269537 -6.5625 8.875 C-7.72994585 5.91747051 -7.78787858 4.48674187 -6.6875 1.5 C-4.08256681 -0.49200774 -3.19338956 -0.28797072 0 0 Z " fill="#EB0028" transform="translate(712.5625,393.125)"/>
<path d="M0 0 C2.91686762 4.82316694 2.13091413 9.50160634 2 15 C-1.96 15.66 -5.92 16.32 -10 17 C-8.37999662 12.94999156 -6.77735918 9.86481376 -4.4375 6.25 C-3.81746094 5.28578125 -3.19742188 4.3215625 -2.55859375 3.328125 C-1 1 -1 1 0 0 Z " fill="#EB0028" transform="translate(619,290)"/>
<path d="M0 0 C-0.33 2.64 -0.66 5.28 -1 8 C-2.32 8 -3.64 8 -5 8 C-5.928125 8.99 -5.928125 8.99 -6.875 10 C-9 12 -9 12 -12.1875 12.3125 C-15 12 -15 12 -16 11 C-15.71269945 8.66055264 -15.38063221 6.3260857 -15 4 C-8.25 3 -8.25 3 -6 3 C-5.525625 2.505 -5.05125 2.01 -4.5625 1.5 C-3 0 -3 0 0 0 Z " fill="#EB0028" transform="translate(596,448)"/>
<path d="M0 0 C3.375 -0.4375 3.375 -0.4375 7 0 C9.4375 2 9.4375 2 11 4 C10 7 10 7 6.75 8.75 C3.07918075 9.97360642 1.58391038 10.19463679 -2 9 C-2.25 3.375 -2.25 3.375 0 0 Z " fill="#EB0028" transform="translate(593,400)"/>
<path d="M0 0 C0.66 0.61875 1.32 1.2375 2 1.875 C5.70411034 4.49874482 8.57924515 5.10086342 13 6 C13.33 10.29 13.66 14.58 14 19 C10.6371729 17.87905763 10.22249623 17.28896868 8.30078125 14.47265625 C7.81416016 13.76302734 7.32753906 13.05339844 6.82617188 12.32226562 C6.32666016 11.57654297 5.82714844 10.83082031 5.3125 10.0625 C4.80138672 9.32064453 4.29027344 8.57878906 3.76367188 7.81445312 C0 2.27195636 0 2.27195636 0 0 Z " fill="#EB0028" transform="translate(558,450)"/>
<path d="M0 0 C2.97 0.495 2.97 0.495 6 1 C3.10933941 10.59453303 3.10933941 10.59453303 0 14 C-1.5 12.875 -1.5 12.875 -3 11 C-3.60643498 6.35066514 -2.67716504 3.79265048 0 0 Z " fill="#EB0028" transform="translate(746,380)"/>
<path d="M0 0 C3.36179774 1.44077046 5.59156268 3.24750021 8 6 C8 6.66 8 7.32 8 8 C6.57421875 9.2890625 6.57421875 9.2890625 4.6875 10.625 C4.07261719 11.07101562 3.45773437 11.51703125 2.82421875 11.9765625 C1 13 1 13 -2 13 C-1.85915204 11.20793453 -1.71216299 9.41635083 -1.5625 7.625 C-1.48128906 6.62726563 -1.40007813 5.62953125 -1.31640625 4.6015625 C-1 2 -1 2 0 0 Z " fill="#EB0028" transform="translate(552,407)"/>
<path d="M0 0 C2.69757742 2.3058744 3.51238802 4.0378873 4.1875 7.5 C4.34605469 8.2734375 4.50460937 9.046875 4.66796875 9.84375 C5.0943971 12.61302585 5.27125682 14.45748637 4 17 C6.64 17 9.28 17 12 17 C12 17.33 12 17.66 12 18 C9.03 18 6.06 18 3 18 C2.67 18.99 2.34 19.98 2 21 C1.93941406 20.07058594 1.87882812 19.14117188 1.81640625 18.18359375 C1.20428448 9.05853115 1.20428448 9.05853115 0 0 Z " fill="#DE939E" transform="translate(295,915)"/>
<path d="M0 0 C2.97 0 5.94 0 9 0 C8.34 1.65 7.68 3.3 7 5 C6.67 4.01 6.34 3.02 6 2 C3.69 2.33 1.38 2.66 -1 3 C-0.67 2.01 -0.34 1.02 0 0 Z " fill="#DE7686" transform="translate(312,909)"/>
<path d="M0 0 C1.98 0 3.96 0 6 0 C5 3 5 3 3.125 4.25 C1 5 1 5 -2 4 C-1.01 3.34 -0.02 2.68 1 2 C0.67 1.34 0.34 0.68 0 0 Z " fill="#EB0028" transform="translate(561,392)"/>
<path d="M0 0 C1.32 1.32 2.64 2.64 4 4 C2 6 2 6 -1.625 6.125 C-2.73875 6.08375 -3.8525 6.0425 -5 6 C-4.360625 5.7525 -3.72125 5.505 -3.0625 5.25 C-0.81258459 4.18437567 -0.81258459 4.18437567 -0.25 1.875 C-0.1675 1.25625 -0.085 0.6375 0 0 Z " fill="#E496A1" transform="translate(318,927)"/>
<path d="M0 0 C0.99 0 1.98 0 3 0 C3 1.32 3 2.64 3 4 C1.68 3.67 0.36 3.34 -1 3 C-0.67 2.01 -0.34 1.02 0 0 Z " fill="#EB0028" transform="translate(569,429)"/>
</svg>
