<svg width="1003" height="351" viewBox="0 0 1003 351" fill="none" xmlns="http://www.w3.org/2000/svg">
<path d="M137.292 280.202C168.422 280.202 194.437 273.99 212.293 261.786C190.075 279.387 161.644 289.928 131.047 289.928C113.442 289.928 96.9361 286.414 81.779 280.171L137.292 280.202Z" fill="#0047B0"/>
<path d="M225.816 249.61C234.759 239.037 239.624 225.514 239.341 209.262C239.341 170.829 211.726 145.102 174.884 141.839C197.636 139.141 219.289 121.54 219.289 88.2206C219.289 71.9687 214.142 59.5131 204.947 49.7871C239.592 73.3492 262.343 113.132 262.343 158.342C262.657 193.826 248.567 225.765 225.816 249.61Z" fill="#0047B0"/>
<path d="M66.873 272.892C26.7994 250.146 0 207.383 0 158.376C0 116.147 19.7701 78.7799 50.649 54.6844V261.504C50.649 261.504 103.997 251.746 105.346 219.556C105.346 217.391 105.346 211.179 105.346 211.179V41.9465H115.639C143.537 41.9465 161.958 56.5669 161.958 92.8355C161.958 129.387 140.305 142.375 117.553 142.375V145.889C149.782 145.889 178.464 162.392 177.115 204.622C176.016 249.079 111.026 266.398 66.873 272.892Z" fill="#0047B0"/>
<path d="M214.459 18.952H248.319V52.8048H214.459V18.952Z" fill="#FF3F00"/>
<path d="M248.037 0H264.292V16.2519H248.037V0Z" fill="#FF3F00"/>
<path d="M254.533 18.952H264.293V28.7094H254.533V18.952Z" fill="#FF3F00"/>
<path d="M235.577 0H245.336V9.75739H235.577V0Z" fill="#FF3F00"/>
<path d="M322.784 168.383V85.8058H366.122C381.812 85.8058 389.94 95.8142 389.94 106.921C389.94 117.211 383.444 124.239 375.599 125.871C384.26 127.22 391.572 135.879 391.572 146.17C391.572 158.625 383.193 168.383 367.471 168.383H322.784ZM372.053 109.901C372.053 104.756 368.256 100.96 362.293 100.96H340.358V118.843H362.293C368.256 118.843 372.053 115.329 372.053 109.901ZM373.684 143.754C373.684 138.609 369.887 133.997 363.109 133.997H340.358V153.229H363.109C369.605 153.229 373.684 149.715 373.684 143.754Z" fill="#0047B0"/>
<path d="M451.386 168.383L435.131 139.142H422.139V168.383H404.534V85.8058H443.258C460.581 85.8058 470.874 97.1632 470.874 112.348C470.874 126.969 461.679 134.812 452.735 136.977L471.407 168.383C471.689 168.383 451.386 168.383 451.386 168.383ZM453.3 112.631C453.3 105.603 447.871 101.524 440.842 101.524H422.421V123.737H440.842C447.871 123.706 453.3 119.376 453.3 112.631Z" fill="#0047B0"/>
<path d="M480.382 127.259C480.382 102.348 498.521 84.4963 523.437 84.4963C548.354 84.4963 566.774 102.38 566.774 127.259C566.774 152.139 548.636 170.023 523.437 170.023C498.772 170.023 480.382 152.139 480.382 127.259ZM548.605 127.259C548.605 111.823 538.594 100.183 523.437 100.183C508.28 100.183 498.521 111.823 498.521 127.259C498.521 142.696 508.28 154.335 523.437 154.335C538.845 154.304 548.605 142.664 548.605 127.259Z" fill="#0047B0"/>
<path d="M632.015 168.383L626.869 154.296H591.408L586.262 168.383H566.209L598.155 85.8058H620.09L652.036 168.383H632.015ZM609.264 103.407L596.272 138.86H622.005L609.264 103.407Z" fill="#0047B0"/>
<path d="M659.628 168.383V85.8058H692.107C718.091 85.8058 735.978 102.309 735.978 127.22C735.978 152.131 718.091 168.383 692.107 168.383H659.628ZM718.122 127.251C718.122 112.631 709.179 101.273 692.139 101.273H677.233V152.978H692.139C708.645 152.947 718.122 141.307 718.122 127.251Z" fill="#0047B0"/>
<path d="M809.378 168.383L794.754 111.533L780.413 168.383H761.741L738.174 85.8058H757.944L772.568 145.354L788.258 85.8058H802.066L817.757 145.354L832.098 85.8058H851.868L828.301 168.383H809.378Z" fill="#0047B0"/>
<path d="M911.465 168.383L906.318 154.296H870.858L865.711 168.383H845.659L877.605 85.8058H899.54L931.486 168.383H911.465ZM888.714 103.407L875.722 138.86H901.454L888.714 103.407Z" fill="#0047B0"/>
<path d="M953.951 134.563L922.005 85.8384H942.058L962.644 119.126L982.948 85.8384H1003L971.305 134.563V168.415H953.951V134.563Z" fill="#0047B0"/>
<path d="M325.95 198.719H339.475V262.346H325.95V198.719Z" fill="#00C3FF"/>
<path d="M391.544 262.315L361.23 220.901V262.315H347.704V198.719H361.512L391.042 238.502V198.719H404.567V262.346H391.544V262.315Z" fill="#00C3FF"/>
<path d="M413.476 198.719H458.413V210.641H427.001V224.164H457.88V236.086H427.001V262.346H413.476V198.719Z" fill="#00C3FF"/>
<path d="M460.863 230.382C460.863 211.149 474.953 197.627 493.908 197.627C513.144 197.627 527.203 211.432 527.203 230.382C527.203 249.614 513.113 263.136 493.908 263.136C474.953 263.419 460.863 249.614 460.863 230.382ZM513.395 230.382C513.395 218.459 505.801 209.549 494.159 209.549C482.516 209.549 474.922 218.491 474.922 230.382C474.922 242.304 482.516 251.214 494.159 251.214C505.801 251.214 513.395 242.304 513.395 230.382Z" fill="#00C3FF"/>
<path d="M528.552 253.127L535.864 242.836C540.477 247.448 547.224 251.496 556.168 251.496C563.479 251.496 567.276 247.982 567.276 244.468C567.276 233.11 530.718 240.954 530.718 217.109C530.718 206.536 539.912 197.877 554.818 197.877C564.829 197.877 573.239 200.858 579.452 206.819L571.858 216.827C566.712 211.964 559.933 209.799 553.437 209.799C547.758 209.799 544.494 212.497 544.494 216.294C544.494 226.302 581.053 219.557 581.053 243.37C581.053 255.009 572.674 263.669 555.603 263.669C543.458 263.418 534.515 259.339 528.552 253.127Z" fill="#00C3FF"/>
<path d="M603.019 262.315V236.337L578.636 198.719H594.076L609.766 224.164L625.457 198.719H640.896L616.513 236.337V262.315H603.019Z" fill="#00C3FF"/>
<path d="M636.598 253.127L643.909 242.836C648.522 247.448 655.269 251.496 664.213 251.496C671.525 251.496 675.322 247.982 675.322 244.468C675.322 233.11 638.763 240.954 638.763 217.109C638.763 206.536 647.958 197.877 662.864 197.877C672.874 197.877 681.284 200.858 687.498 206.819L679.904 216.827C674.757 211.964 667.979 209.799 661.483 209.799C655.803 209.799 652.539 212.497 652.539 216.294C652.539 226.302 689.098 219.557 689.098 243.37C689.098 255.009 680.719 263.669 663.648 263.669C651.504 263.418 642.56 259.339 636.598 253.127Z" fill="#00C3FF"/>
<path d="M343.742 350.461C336.732 350.461 330.792 348.032 326.277 343.72L330.554 338.315C334.297 341.777 338.633 343.963 343.98 343.963C349.029 343.963 351.643 341.412 351.643 338.436C351.643 334.975 348.732 333.821 342.198 332.242C333.762 330.238 327.881 327.747 327.881 319.913C327.881 312.625 333.94 307.281 342.554 307.281C349.029 307.281 353.901 309.528 358 313.111L353.96 318.698C350.396 315.54 346.297 313.779 342.257 313.779C338.158 313.779 335.366 316.33 335.366 319.245C335.366 322.646 338.396 323.861 344.871 325.379C353.366 327.322 359.069 330.116 359.069 337.708C359.069 345.178 353.485 350.461 343.742 350.461Z" fill="#0047B0"/>
<path d="M367.801 313.658C365.484 313.658 363.642 311.653 363.642 309.406C363.642 307.159 365.484 305.216 367.801 305.216C370.058 305.216 371.9 307.159 371.9 309.406C371.9 311.653 370.058 313.658 367.801 313.658ZM364.117 349.793V318.395H371.365V349.793H364.117Z" fill="#0047B0"/>
<path d="M394.643 317.666C401.356 317.666 406.049 322.707 406.049 329.812V349.793H399.039V331.27C399.039 327.019 396.365 323.982 392.563 323.982C388.761 323.982 385.613 326.594 385.138 329.934V349.793H377.89V318.395H385.138V322.585C387.039 319.67 390.603 317.666 394.643 317.666Z" fill="#0047B0"/>
<path d="M427.224 350.522C418.372 350.522 410.828 342.991 410.828 334.064C410.828 325.136 418.372 317.666 427.343 317.666C431.977 317.666 436.076 319.67 438.987 322.767L434.115 327.14C432.452 325.257 429.897 323.982 427.283 323.982C422.234 323.982 418.016 328.598 418.016 334.064C418.016 339.59 422.234 344.206 427.283 344.206C429.957 344.206 432.571 342.931 434.293 340.926L439.165 345.238C436.194 348.457 432.095 350.522 427.224 350.522Z" fill="#0047B0"/>
<path d="M457.694 343.963C460.545 343.963 463.931 342.627 465.654 340.805L470.228 345.664C467.555 348.579 462.209 350.522 457.753 350.522C448.961 350.522 441.713 343.659 441.713 334.003C441.713 324.589 448.604 317.666 457.337 317.666C466.842 317.666 472.367 325.014 472.367 336.614H449.198C450.09 340.926 453.298 343.963 457.694 343.963ZM457.634 324.225C453.595 324.225 450.327 326.836 449.258 330.966H465.417C464.585 327.019 461.971 324.225 457.634 324.225Z" fill="#0047B0"/>
<path d="M491.196 349.793V343.599L506.226 331.331C511.395 327.079 513.236 323.921 513.236 320.52C513.236 316.573 509.969 314.143 506.286 314.143C502.008 314.143 498.919 316.39 495.949 320.034L491.137 315.48C494.998 310.317 499.929 307.341 506.523 307.341C514.603 307.341 520.781 312.625 520.781 320.338C520.781 325.865 518.286 330.298 511.276 335.825L502.721 342.87H521.197V349.793H491.196Z" fill="#0047B0"/>
<path d="M543.684 350.522C533.169 350.522 525.744 341.594 525.744 328.901C525.744 316.269 533.169 307.341 543.684 307.341C554.14 307.341 561.506 316.269 561.506 328.901C561.506 341.594 554.14 350.522 543.684 350.522ZM543.684 343.599C549.685 343.599 553.962 337.525 553.962 328.901C553.962 320.277 549.685 314.265 543.684 314.265C537.625 314.265 533.348 320.277 533.348 328.901C533.348 337.525 537.625 343.599 543.684 343.599Z" fill="#0047B0"/>
<path d="M583.854 350.522C573.339 350.522 565.913 341.594 565.913 328.901C565.913 316.269 573.339 307.341 583.854 307.341C594.309 307.341 601.676 316.269 601.676 328.901C601.676 341.594 594.309 350.522 583.854 350.522ZM583.854 343.599C589.854 343.599 594.131 337.525 594.131 328.901C594.131 320.277 589.854 314.265 583.854 314.265C577.794 314.265 573.517 320.277 573.517 328.901C573.517 337.525 577.794 343.599 583.854 343.599Z" fill="#0047B0"/>
<path d="M621.528 350.522C612.676 350.522 605.666 346.089 605.666 338.679C605.666 333.639 609.23 329.995 613.983 328.233C609.765 326.411 606.735 323.314 606.735 318.577C606.735 311.41 613.864 307.341 621.528 307.341C629.429 307.341 636.379 311.532 636.379 318.577C636.379 323.435 633.231 326.533 629.132 328.233C633.944 330.116 637.449 333.76 637.449 338.679C637.449 346.149 630.32 350.522 621.528 350.522ZM621.528 325.5C625.033 325.318 629.072 323.193 629.072 319.549C629.072 316.269 625.805 313.779 621.528 313.779C617.25 313.779 614.042 316.269 614.042 319.549C614.042 323.253 618.142 325.318 621.528 325.5ZM621.528 344.024C626.28 344.024 629.963 341.594 629.963 337.951C629.963 334.064 625.33 331.756 621.528 331.574C617.785 331.756 613.092 334.064 613.092 337.951C613.092 341.594 616.716 344.024 621.528 344.024Z" fill="#0047B0"/>
</svg>
