<svg width="289" height="74" viewBox="0 0 289 74" fill="none" xmlns="http://www.w3.org/2000/svg">
<path d="M26.32 73.672C21.584 73.672 17.296 72.52 13.456 70.216C9.616 67.912 6.544 64.84 4.24 61C2 57.096 0.88 52.744 0.88 47.944C0.88 43.144 2 38.824 4.24 34.984C6.544 31.08 9.648 28.008 13.552 25.768C17.456 23.464 21.84 22.312 26.704 22.312C29.2 22.312 31.6 22.664 33.904 23.368C36.208 24.008 38.352 24.968 40.336 26.248V5.8L53.488 3.592V73H40.528V68.872C36.432 72.072 31.696 73.672 26.32 73.672ZM28.432 62.44C30.864 62.44 33.072 62.056 35.056 61.288C37.104 60.456 38.864 59.24 40.336 57.64V38.152C38.864 36.68 37.104 35.528 35.056 34.696C33.008 33.864 30.8 33.448 28.432 33.448C25.68 33.448 23.184 34.088 20.944 35.368C18.768 36.584 17.04 38.312 15.76 40.552C14.48 42.728 13.84 45.192 13.84 47.944C13.84 50.696 14.48 53.16 15.76 55.336C17.04 57.512 18.768 59.24 20.944 60.52C23.184 61.8 25.68 62.44 28.432 62.44ZM63.7465 73V5.8L76.8985 3.592V73H63.7465ZM129.623 73.96C125.015 73.96 120.759 73.384 116.855 72.232C112.951 71.016 109.559 69.288 106.679 67.048L113.207 58.312C116.087 60.232 118.839 61.672 121.463 62.632C124.151 63.592 126.807 64.072 129.431 64.072C132.375 64.072 134.711 63.592 136.439 62.632C138.231 61.608 139.127 60.296 139.127 58.696C139.127 57.416 138.615 56.392 137.591 55.624C136.631 54.856 135.063 54.312 132.887 53.992L123.287 52.552C118.295 51.784 114.519 50.184 111.959 47.752C109.399 45.256 108.119 41.992 108.119 37.96C108.119 34.696 108.951 31.912 110.615 29.608C112.343 27.24 114.743 25.416 117.815 24.136C120.951 22.792 124.663 22.12 128.951 22.12C132.599 22.12 136.151 22.632 139.607 23.656C143.127 24.68 146.423 26.248 149.495 28.36L143.159 36.904C140.407 35.176 137.783 33.928 135.287 33.16C132.791 32.392 130.263 32.008 127.703 32.008C125.335 32.008 123.415 32.456 121.943 33.352C120.535 34.248 119.831 35.432 119.831 36.904C119.831 38.248 120.343 39.304 121.367 40.072C122.391 40.84 124.151 41.384 126.647 41.704L136.151 43.144C141.143 43.848 144.951 45.448 147.575 47.944C150.199 50.376 151.511 53.544 151.511 57.448C151.511 60.648 150.551 63.496 148.631 65.992C146.711 68.424 144.119 70.376 140.855 71.848C137.591 73.256 133.847 73.96 129.623 73.96ZM177.451 73.96C173.611 73.96 170.187 73.128 167.179 71.464C164.235 69.736 161.899 67.368 160.171 64.36C158.507 61.352 157.675 57.896 157.675 53.992V22.984H170.827V52.072C170.827 55.272 171.755 57.832 173.611 59.752C175.531 61.672 178.091 62.632 181.291 62.632C183.467 62.632 185.419 62.216 187.147 61.384C188.939 60.488 190.411 59.24 191.563 57.64V22.984H204.715V73H191.563V68.968C187.723 72.296 183.019 73.96 177.451 73.96ZM214.965 73V22.984H228.117V28.552C229.717 26.376 231.637 24.712 233.877 23.56C236.117 22.408 238.645 21.832 241.461 21.832C243.893 21.896 245.717 22.28 246.933 22.984V34.504C245.973 34.056 244.917 33.736 243.765 33.544C242.613 33.288 241.429 33.16 240.213 33.16C237.653 33.16 235.317 33.8 233.205 35.08C231.093 36.36 229.397 38.184 228.117 40.552V73H214.965ZM261.833 73V33.928H250.697V22.984H261.833V18.184C261.833 12.552 263.465 8.264 266.729 5.32C269.993 2.312 274.697 0.807997 280.841 0.807997C282.185 0.807997 283.561 0.871996 284.969 0.999994C286.377 1.128 287.593 1.352 288.617 1.672V12.712C287.401 12.456 286.345 12.264 285.449 12.136C284.553 12.008 283.561 11.944 282.473 11.944C279.977 11.944 278.089 12.488 276.809 13.576C275.593 14.6 274.985 16.232 274.985 18.472V22.984H288.617V33.928H274.985V73H261.833Z" fill="black"/>
<path d="M94 73.96C91.888 73.96 90.064 73.192 88.528 71.656C86.992 70.12 86.224 68.296 86.224 66.184C86.224 64.008 86.992 62.152 88.528 60.616C90.064 59.08 91.888 58.312 94 58.312C96.112 58.312 97.936 59.08 99.472 60.616C101.008 62.152 101.776 64.008 101.776 66.184C101.776 68.296 101.008 70.12 99.472 71.656C97.936 73.192 96.112 73.96 94 73.96Z" fill="#2D66F5"/>
</svg>
